<?xml version="1.0" encoding="UTF-8" standalone="no"?>
<!-- Created with Inkscape (http://www.inkscape.org/) -->

<svg
   xmlns:dc="http://purl.org/dc/elements/1.1/"
   xmlns:cc="http://creativecommons.org/ns#"
   xmlns:rdf="http://www.w3.org/1999/02/22-rdf-syntax-ns#"
   xmlns:svg="http://www.w3.org/2000/svg"
   xmlns="http://www.w3.org/2000/svg"
   xmlns:sodipodi="http://sodipodi.sourceforge.net/DTD/sodipodi-0.dtd"
   xmlns:inkscape="http://www.inkscape.org/namespaces/inkscape"
   width="744.09448819"
   height="1052.3622047"
   id="svg2"
   version="1.1"
   inkscape:version="0.47 r22583"
   sodipodi:docname="watch.svg">
  <defs
     id="defs4">
    <inkscape:perspective
       sodipodi:type="inkscape:persp3d"
       inkscape:vp_x="0 : 526.18109 : 1"
       inkscape:vp_y="0 : 1000 : 0"
       inkscape:vp_z="744.09448 : 526.18109 : 1"
       inkscape:persp3d-origin="372.04724 : 350.78739 : 1"
       id="perspective10" />
    <inkscape:perspective
       id="perspective2824"
       inkscape:persp3d-origin="0.5 : 0.33333333 : 1"
       inkscape:vp_z="1 : 0.5 : 1"
       inkscape:vp_y="0 : 1000 : 0"
       inkscape:vp_x="0 : 0.5 : 1"
       sodipodi:type="inkscape:persp3d" />
    <inkscape:perspective
       id="perspective2846"
       inkscape:persp3d-origin="0.5 : 0.33333333 : 1"
       inkscape:vp_z="1 : 0.5 : 1"
       inkscape:vp_y="0 : 1000 : 0"
       inkscape:vp_x="0 : 0.5 : 1"
       sodipodi:type="inkscape:persp3d" />
    <inkscape:perspective
       id="perspective2860"
       inkscape:persp3d-origin="0.5 : 0.33333333 : 1"
       inkscape:vp_z="1 : 0.5 : 1"
       inkscape:vp_y="0 : 1000 : 0"
       inkscape:vp_x="0 : 0.5 : 1"
       sodipodi:type="inkscape:persp3d" />
    <inkscape:perspective
       id="perspective2874"
       inkscape:persp3d-origin="0.5 : 0.33333333 : 1"
       inkscape:vp_z="1 : 0.5 : 1"
       inkscape:vp_y="0 : 1000 : 0"
       inkscape:vp_x="0 : 0.5 : 1"
       sodipodi:type="inkscape:persp3d" />
    <filter
       inkscape:collect="always"
       id="filter3712">
      <feGaussianBlur
         inkscape:collect="always"
         stdDeviation="3.9129713"
         id="feGaussianBlur3714" />
    </filter>
    <inkscape:perspective
       id="perspective2862"
       inkscape:persp3d-origin="0.5 : 0.33333333 : 1"
       inkscape:vp_z="1 : 0.5 : 1"
       inkscape:vp_y="0 : 1000 : 0"
       inkscape:vp_x="0 : 0.5 : 1"
       sodipodi:type="inkscape:persp3d" />
    <filter
       color-interpolation-filters="sRGB"
       inkscape:collect="always"
       id="filter3712-8">
      <feGaussianBlur
         inkscape:collect="always"
         stdDeviation="3.9129713"
         id="feGaussianBlur3714-8" />
    </filter>
    <inkscape:perspective
       id="perspective3665"
       inkscape:persp3d-origin="0.5 : 0.33333333 : 1"
       inkscape:vp_z="1 : 0.5 : 1"
       inkscape:vp_y="0 : 1000 : 0"
       inkscape:vp_x="0 : 0.5 : 1"
       sodipodi:type="inkscape:persp3d" />
    <inkscape:perspective
       id="perspective3679"
       inkscape:persp3d-origin="0.5 : 0.33333333 : 1"
       inkscape:vp_z="1 : 0.5 : 1"
       inkscape:vp_y="0 : 1000 : 0"
       inkscape:vp_x="0 : 0.5 : 1"
       sodipodi:type="inkscape:persp3d" />
  </defs>
  <sodipodi:namedview
     id="base"
     pagecolor="#ffffff"
     bordercolor="#666666"
     borderopacity="1.0"
     inkscape:pageopacity="0.0"
     inkscape:pageshadow="2"
     inkscape:zoom="0.45254834"
     inkscape:cx="773.64182"
     inkscape:cy="484.67333"
     inkscape:document-units="px"
     inkscape:current-layer="layer1"
     showgrid="false"
     inkscape:window-width="1366"
     inkscape:window-height="706"
     inkscape:window-x="-8"
     inkscape:window-y="-8"
     inkscape:window-maximized="1" />
  <metadata
     id="metadata7">
    <rdf:RDF>
      <cc:Work
         rdf:about="">
        <dc:format>image/svg+xml</dc:format>
        <dc:type
           rdf:resource="http://purl.org/dc/dcmitype/StillImage" />
        <dc:title></dc:title>
      </cc:Work>
    </rdf:RDF>
  </metadata>
  <g
     inkscape:label="Layer 1"
     inkscape:groupmode="layer"
     id="layer1">
    <path
       id="path2832-1"
       d="m 242.85714,404.64967 c -1.375,-0.24113 -6.73913,-1.16195 -11.9203,-2.04625 -28.54455,-4.87187 -57.52657,-20.61569 -76.57026,-41.59503 -7.16783,-7.89639 -17.50944,-23.23549 -17.50944,-25.97072 0,-3.25648 10.3337,-17.95908 19.2227,-27.34969 19.09086,-20.16818 43.6507,-33.69452 72.7773,-40.0821 12.2401,-2.68431 55.60234,-2.7224 67.695,-0.0595 28.04576,6.17598 51.37696,18.67465 70.30681,37.6638 8.88892,8.91676 21.99819,26.63086 21.99819,29.72538 0,2.09872 -7.85968,14.0512 -14.29014,21.7315 -19.16156,22.88585 -46.34593,38.89888 -77.51086,45.65799 -7.70376,1.6708 -14.01904,2.17136 -30.699,2.43327 -11.55,0.18135 -22.125,0.13244 -23.5,-0.10869 z M 219.474,375.14515 c -11.52637,-12.44956 -17.45305,-28.399 -16.22485,-43.66319 0.66021,-8.20518 2.40401,-15.99607 3.76918,-16.83979 1.30273,-0.80513 10.72285,1.75497 11.96506,3.25174 0.72179,0.8697 0.66822,2.90722 -0.17557,6.67766 -0.68139,3.04476 -1.02041,9.12017 -0.77249,13.84353 0.58856,11.2136 4.47011,19.73938 12.59912,27.67383 11.8475,11.56395 27.70735,15.78231 43.68773,11.61995 12.82267,-3.33988 23.90946,-12.7014 29.8199,-25.17949 2.98499,-6.30188 3.21506,-7.53898 3.21506,-17.2876 0,-10.01307 -0.1676,-10.84781 -3.61417,-18 -7.96283,-16.52418 -22.78622,-26 -40.67278,-26 -4.31753,0 -10.22684,0.70583 -13.13181,1.56851 -2.90497,0.86269 -5.90927,1.32772 -6.67623,1.03341 -0.76696,-0.29431 -2.10681,-2.31541 -2.97744,-4.49134 -0.87064,-2.17593 -2.12878,-4.16568 -2.79587,-4.42167 -1.91427,-0.73457 -18.4596,3.7661 -26.66782,7.2542 -11.00592,4.677 -21.4721,11.5661 -30.1116,19.82023 -7.23135,6.90879 -17.85228,20.71421 -17.85228,23.20496 0,2.3322 8.62762,13.75856 15.57339,20.6253 8.0041,7.91302 19.06786,15.69719 29.20245,20.54606 6.83718,3.27124 17.41448,6.94989 18.1029,6.29595 0.20831,-0.19787 -2.60953,-3.58738 -6.26188,-7.53225 z m 31.70732,-6.28654 c -8.64065,-2.8183 -17.00347,-10.15132 -21.40297,-18.76741 -3.59018,-7.03107 -3.91583,-26.14677 -0.46798,-27.46984 0.72227,-0.27716 7.83121,2.44905 15.79765,6.05825 13.83481,6.26787 16.74912,7.30511 16.74912,5.96121 0,-0.33053 -3.15,-7.29133 -7,-15.46845 -3.85,-8.17712 -7,-15.12965 -7,-15.45006 0,-1.73912 8.188,-3.78136 15,-3.74127 14.48555,0.0852 25.87999,7.17768 32.21943,20.0549 2.9294,5.95047 3.28057,7.57592 3.28057,15.18482 0,10.35281 -2.84776,17.42142 -9.83268,24.40634 -7.26889,7.26889 -13.50754,9.92448 -24.16732,10.28725 -5.69222,0.19371 -10.53475,-0.1943 -13.17582,-1.05574 z m 54.17582,12.45189 c 13.44604,-4.27021 23.94813,-10.07164 35.23934,-19.46647 7.56541,-6.29479 15.96692,-16.03558 19.8994,-23.07155 l 2.3086,-4.13054 -4.42444,-6.59528 c -8.18441,-12.2001 -21.71138,-24.09373 -36.5229,-32.11289 -7.40625,-4.00984 -21.74208,-9.28324 -22.68186,-8.34346 -0.34498,0.34499 1.44529,2.45157 3.97838,4.68128 5.67498,4.99532 12.68933,15.4798 15.70208,23.4702 2.79219,7.40542 3.81465,23.26564 2.04835,31.77383 -1.8816,9.06361 -7.50721,19.15193 -15.1899,27.23981 -5.89097,6.20166 -7.70661,8.5302 -6.60705,8.47346 0.1375,-0.007 2.95,-0.87037 6.25,-1.91839 z"
       style="fill:#cccccc;fill-opacity:1;filter:url(#filter3712)"
       inkscape:export-filename="C:\!Wrok\project chromeimo\icons\path2832.png"
       inkscape:export-xdpi="13.29"
       inkscape:export-ydpi="13.29" />
    <path
       id="path2832"
       d="m 235.21429,389.77007 c -1.375,-0.24113 -6.73913,-1.16195 -11.9203,-2.04625 -28.54455,-4.87187 -57.52657,-20.61569 -76.57026,-41.59503 -7.16783,-7.89639 -17.50944,-23.23549 -17.50944,-25.97072 0,-3.25648 10.3337,-17.95908 19.2227,-27.34969 19.09086,-20.16818 43.6507,-33.69452 72.7773,-40.0821 12.2401,-2.68431 55.60234,-2.7224 67.695,-0.0595 28.04576,6.17598 51.37696,18.67465 70.30681,37.6638 8.88892,8.91676 21.99819,26.63086 21.99819,29.72538 0,2.09872 -7.85968,14.0512 -14.29014,21.7315 -19.16156,22.88585 -46.34593,38.89888 -77.51086,45.65799 -7.70376,1.6708 -14.01904,2.17136 -30.699,2.43327 -11.55,0.18135 -22.125,0.13244 -23.5,-0.10869 z m -23.38314,-29.50452 c -11.52637,-12.44956 -17.45305,-28.399 -16.22485,-43.66319 0.66021,-8.20518 2.40401,-15.99607 3.76918,-16.83979 1.30273,-0.80513 10.72285,1.75497 11.96506,3.25174 0.72179,0.8697 0.66822,2.90722 -0.17557,6.67766 -0.68139,3.04476 -1.02041,9.12017 -0.77249,13.84353 0.58856,11.2136 4.47011,19.73938 12.59912,27.67383 11.8475,11.56395 27.70735,15.78231 43.68773,11.61995 12.82267,-3.33988 23.90946,-12.7014 29.8199,-25.17949 2.98499,-6.30188 3.21506,-7.53898 3.21506,-17.2876 0,-10.01307 -0.1676,-10.84781 -3.61417,-18 -7.96283,-16.52418 -22.78622,-26 -40.67278,-26 -4.31753,0 -10.22684,0.70583 -13.13181,1.56851 -2.90497,0.86269 -5.90927,1.32772 -6.67623,1.03341 -0.76696,-0.29431 -2.10681,-2.31541 -2.97744,-4.49134 -0.87064,-2.17593 -2.12878,-4.16568 -2.79587,-4.42167 -1.91427,-0.73457 -18.4596,3.7661 -26.66782,7.2542 -11.00592,4.677 -21.4721,11.5661 -30.1116,19.82023 -7.23135,6.90879 -17.85228,20.71421 -17.85228,23.20496 0,2.3322 8.62762,13.75856 15.57339,20.6253 8.0041,7.91302 19.06786,15.69719 29.20245,20.54606 6.83718,3.27124 17.41448,6.94989 18.1029,6.29595 0.20831,-0.19787 -2.60953,-3.58738 -6.26188,-7.53225 z m 31.70732,-6.28654 c -8.64065,-2.8183 -17.00347,-10.15132 -21.40297,-18.76741 -3.59018,-7.03107 -3.91583,-26.14677 -0.46798,-27.46984 0.72227,-0.27716 7.83121,2.44905 15.79765,6.05825 13.83481,6.26787 16.74912,7.30511 16.74912,5.96121 0,-0.33053 -3.15,-7.29133 -7,-15.46845 -3.85,-8.17712 -7,-15.12965 -7,-15.45006 0,-1.73912 8.188,-3.78136 15,-3.74127 14.48555,0.0852 25.87999,7.17768 32.21943,20.0549 2.9294,5.95047 3.28057,7.57592 3.28057,15.18482 0,10.35281 -2.84776,17.42142 -9.83268,24.40634 -7.26889,7.26889 -13.50754,9.92448 -24.16732,10.28725 -5.69222,0.19371 -10.53475,-0.1943 -13.17582,-1.05574 z m 54.17582,12.45189 c 13.44604,-4.27021 23.94813,-10.07164 35.23934,-19.46647 7.56541,-6.29479 15.96692,-16.03558 19.8994,-23.07155 l 2.3086,-4.13054 -4.42444,-6.59528 c -8.18441,-12.2001 -21.71138,-24.09373 -36.5229,-32.11289 -7.40625,-4.00984 -21.74208,-9.28324 -22.68186,-8.34346 -0.34498,0.34499 1.44529,2.45157 3.97838,4.68128 5.67498,4.99532 12.68933,15.4798 15.70208,23.4702 2.79219,7.40542 3.81465,23.26564 2.04835,31.77383 -1.8816,9.06361 -7.50721,19.15193 -15.1899,27.23981 -5.89097,6.20166 -7.70661,8.5302 -6.60705,8.47346 0.1375,-0.007 2.95,-0.87037 6.25,-1.91839 z"
       style="fill:#225cb0;fill-opacity:1"
       inkscape:export-xdpi="13.29"
       inkscape:export-ydpi="13.29" />
    <path
       id="path2832-1-2"
       d="m 354.28571,727.3939 c -1.375,-0.24113 -6.73913,-1.16195 -11.9203,-2.04625 -28.54455,-4.87187 -57.52657,-20.61569 -76.57026,-41.59503 -7.16783,-7.89639 -17.50944,-23.23548 -17.50944,-25.97071 0,-3.25648 10.3337,-17.95908 19.2227,-27.34969 19.09086,-20.16818 43.6507,-33.69452 72.7773,-40.0821 12.2401,-2.68431 55.60234,-2.7224 67.695,-0.0595 28.04576,6.17598 51.37696,18.67465 70.30681,37.6638 8.88892,8.91676 21.99819,26.63086 21.99819,29.72538 0,2.09872 -7.85968,14.0512 -14.29014,21.73149 -19.16156,22.88585 -46.34593,38.89888 -77.51086,45.65799 -7.70376,1.6708 -14.01904,2.17136 -30.699,2.43327 -11.55,0.18135 -22.125,0.13244 -23.5,-0.10869 z m -23.38314,-29.50452 c -11.52637,-12.44956 -17.45305,-28.39899 -16.22485,-43.66318 0.66021,-8.20518 2.40401,-15.99607 3.76918,-16.83979 1.30273,-0.80513 10.72285,1.75497 11.96506,3.25174 0.72179,0.8697 0.66822,2.90722 -0.17557,6.67766 -0.68139,3.04476 -1.02041,9.12017 -0.77249,13.84353 0.58856,11.2136 4.47011,19.73937 12.59912,27.67382 11.8475,11.56395 27.70735,15.78231 43.68773,11.61995 12.82267,-3.33988 23.90946,-12.7014 29.8199,-25.17949 2.98499,-6.30187 3.21506,-7.53897 3.21506,-17.28759 0,-10.01307 -0.1676,-10.84781 -3.61417,-18 -7.96283,-16.52418 -22.78622,-26 -40.67278,-26 -4.31753,0 -10.22684,0.70583 -13.13181,1.56851 -2.90497,0.86269 -5.90927,1.32772 -6.67623,1.03341 -0.76696,-0.29431 -2.10681,-2.31541 -2.97744,-4.49134 -0.87064,-2.17593 -2.12878,-4.16568 -2.79587,-4.42167 -1.91427,-0.73457 -18.4596,3.7661 -26.66782,7.2542 -11.00592,4.677 -21.4721,11.5661 -30.1116,19.82023 -7.23135,6.90879 -17.85228,20.71421 -17.85228,23.20496 0,2.3322 8.62762,13.75856 15.57339,20.62529 8.0041,7.91302 19.06786,15.69719 29.20245,20.54606 6.83718,3.27124 17.41448,6.94989 18.1029,6.29595 0.20831,-0.19787 -2.60953,-3.58738 -6.26188,-7.53225 z m 31.70732,-6.28654 c -8.64065,-2.8183 -17.00347,-10.15132 -21.40297,-18.7674 -3.59018,-7.03107 -3.91583,-26.14677 -0.46798,-27.46984 0.72227,-0.27716 7.83121,2.44905 15.79765,6.05825 13.83481,6.26787 16.74912,7.30511 16.74912,5.96121 0,-0.33053 -3.15,-7.29133 -7,-15.46845 -3.85,-8.17712 -7,-15.12965 -7,-15.45006 0,-1.73912 8.188,-3.78136 15,-3.74127 14.48555,0.0852 25.87999,7.17768 32.21943,20.0549 2.9294,5.95047 3.28057,7.57592 3.28057,15.18482 0,10.35281 -2.84776,17.42141 -9.83268,24.40633 -7.26889,7.26889 -13.50754,9.92448 -24.16732,10.28725 -5.69222,0.19371 -10.53475,-0.1943 -13.17582,-1.05574 z m 54.17582,12.45189 c 13.44604,-4.27021 23.94813,-10.07164 35.23934,-19.46647 7.56541,-6.29479 15.96692,-16.03557 19.8994,-23.07154 l 2.3086,-4.13054 -4.42444,-6.59528 c -8.18441,-12.2001 -21.71138,-24.09373 -36.5229,-32.11289 -7.40625,-4.00984 -21.74208,-9.28324 -22.68186,-8.34346 -0.34498,0.34499 1.44529,2.45157 3.97838,4.68128 5.67498,4.99532 12.68933,15.4798 15.70208,23.4702 2.79219,7.40542 3.81465,23.26564 2.04835,31.77383 -1.8816,9.0636 -7.50721,19.15192 -15.1899,27.2398 -5.89097,6.20166 -7.70661,8.5302 -6.60705,8.47346 0.1375,-0.007 2.95,-0.87037 6.25,-1.91839 z"
       style="fill:#cccccc;fill-opacity:1;filter:url(#filter3712-8)"
       inkscape:export-filename="C:\!Wrok\project chromeimo\icons\path2832-4.png"
       inkscape:export-xdpi="13.20553"
       inkscape:export-ydpi="13.20553" />
    <path
       id="path2832-4"
       d="m 346.64286,712.5143 c -1.375,-0.24113 -6.73913,-1.16195 -11.9203,-2.04625 -28.54455,-4.87187 -57.52657,-20.61569 -76.57026,-41.59502 -7.16783,-7.89639 -17.50944,-23.23549 -17.50944,-25.97072 0,-3.25648 10.3337,-17.95908 19.2227,-27.34969 19.09086,-20.16818 43.6507,-33.69453 72.7773,-40.08211 12.2401,-2.68431 55.60234,-2.7224 67.695,-0.0595 28.04576,6.17598 51.37696,18.67466 70.30681,37.66381 8.88892,8.91676 21.99819,26.63086 21.99819,29.72538 0,2.09872 -7.85968,14.0512 -14.29014,21.7315 -19.16156,22.88584 -46.34593,38.89887 -77.51086,45.65798 -7.70376,1.6708 -14.01904,2.17136 -30.699,2.43327 -11.55,0.18135 -22.125,0.13244 -23.5,-0.10869 z m -23.38314,-29.50452 c -11.52637,-12.44955 -17.45305,-28.39899 -16.22485,-43.66318 0.66021,-8.20518 2.40401,-15.99607 3.76918,-16.83979 1.30273,-0.80513 10.72285,1.75497 11.96506,3.25174 0.72179,0.8697 0.66822,2.90722 -0.17557,6.67766 -0.68139,3.04476 -1.02041,9.12017 -0.77249,13.84353 0.58856,11.2136 4.47011,19.73938 12.59912,27.67382 11.8475,11.56395 27.70735,15.78231 43.68773,11.61995 12.82267,-3.33988 23.90946,-12.70139 29.8199,-25.17948 2.98499,-6.30188 3.21506,-7.53898 3.21506,-17.2876 0,-10.01307 -0.1676,-10.84781 -3.61417,-18 -7.96283,-16.52418 -22.78622,-26 -40.67278,-26 -4.31753,0 -10.22684,0.70583 -13.13181,1.56851 -2.90497,0.86269 -5.90927,1.32772 -6.67623,1.03341 -0.76696,-0.29431 -2.10681,-2.31541 -2.97744,-4.49134 -0.87064,-2.17593 -2.12878,-4.16568 -2.79587,-4.42167 -1.91427,-0.73457 -18.4596,3.7661 -26.66782,7.2542 -11.00592,4.677 -21.4721,11.5661 -30.1116,19.82023 -7.23135,6.90879 -17.85228,20.71421 -17.85228,23.20496 0,2.3322 8.62762,13.75856 15.57339,20.6253 8.0041,7.91302 19.06786,15.69718 29.20245,20.54605 6.83718,3.27124 17.41448,6.94989 18.1029,6.29595 0.20831,-0.19787 -2.60953,-3.58738 -6.26188,-7.53225 z m 31.70732,-6.28654 c -8.64065,-2.8183 -17.00347,-10.15131 -21.40297,-18.7674 -3.59018,-7.03107 -3.91583,-26.14677 -0.46798,-27.46984 0.72227,-0.27716 7.83121,2.44905 15.79765,6.05825 13.83481,6.26787 16.74912,7.30511 16.74912,5.96121 0,-0.33053 -3.15,-7.29133 -7,-15.46845 -3.85,-8.17712 -7,-15.12965 -7,-15.45006 0,-1.73912 8.188,-3.78136 15,-3.74127 14.48555,0.0852 25.87999,7.17768 32.21943,20.0549 2.9294,5.95047 3.28057,7.57592 3.28057,15.18482 0,10.35281 -2.84776,17.42142 -9.83268,24.40634 -7.26889,7.26888 -13.50754,9.92447 -24.16732,10.28724 -5.69222,0.19371 -10.53475,-0.1943 -13.17582,-1.05574 z m 54.17582,12.45189 c 13.44604,-4.27021 23.94813,-10.07164 35.23934,-19.46646 7.56541,-6.29479 15.96692,-16.03558 19.8994,-23.07155 l 2.3086,-4.13054 -4.42444,-6.59528 c -8.18441,-12.2001 -21.71138,-24.09373 -36.5229,-32.11289 -7.40625,-4.00984 -21.74208,-9.28324 -22.68186,-8.34346 -0.34498,0.34499 1.44529,2.45157 3.97838,4.68128 5.67498,4.99532 12.68933,15.4798 15.70208,23.4702 2.79219,7.40542 3.81465,23.26564 2.04835,31.77383 -1.8816,9.06361 -7.50721,19.15192 -15.1899,27.2398 -5.89097,6.20166 -7.70661,8.5302 -6.60705,8.47346 0.1375,-0.007 2.95,-0.87037 6.25,-1.91839 z"
       style="fill:#cc3300;fill-opacity:1"
       inkscape:export-xdpi="13.20553"
       inkscape:export-ydpi="13.20553" />
  </g>
</svg>
