<?xml version="1.0" encoding="UTF-8" standalone="no"?>
<!-- Created with Inkscape (http://www.inkscape.org/) -->

<svg
   xmlns:dc="http://purl.org/dc/elements/1.1/"
   xmlns:cc="http://creativecommons.org/ns#"
   xmlns:rdf="http://www.w3.org/1999/02/22-rdf-syntax-ns#"
   xmlns:svg="http://www.w3.org/2000/svg"
   xmlns="http://www.w3.org/2000/svg"
   xmlns:sodipodi="http://sodipodi.sourceforge.net/DTD/sodipodi-0.dtd"
   xmlns:inkscape="http://www.inkscape.org/namespaces/inkscape"
   width="744.09003"
   height="744.09003"
   id="svg2"
   version="1.1"
   inkscape:version="0.47 r22583"
   sodipodi:docname="logo.svg"
   inkscape:export-filename="C:\!Wrok\project chromeimo\icon.png"
   inkscape:export-xdpi="24.19062"
   inkscape:export-ydpi="24.19062">
  <defs
     id="defs4">
    <inkscape:perspective
       sodipodi:type="inkscape:persp3d"
       inkscape:vp_x="0 : 526.18109 : 1"
       inkscape:vp_y="0 : 1000 : 0"
       inkscape:vp_z="744.09448 : 526.18109 : 1"
       inkscape:persp3d-origin="372.04724 : 350.78739 : 1"
       id="perspective10" />
    <inkscape:perspective
       sodipodi:type="inkscape:persp3d"
       inkscape:vp_x="0 : 0.5 : 1"
       inkscape:vp_y="0 : 1000 : 0"
       inkscape:vp_z="1 : 0.5 : 1"
       inkscape:persp3d-origin="0.5 : 0.33333333 : 1"
       id="perspective4236" />
    <inkscape:perspective
       sodipodi:type="inkscape:persp3d"
       inkscape:vp_x="0 : 0.5 : 1"
       inkscape:vp_y="0 : 1000 : 0"
       inkscape:vp_z="1 : 0.5 : 1"
       inkscape:persp3d-origin="0.5 : 0.33333333 : 1"
       id="perspective3112" />
    <inkscape:perspective
       sodipodi:type="inkscape:persp3d"
       inkscape:vp_x="0 : 0.5 : 1"
       inkscape:vp_y="0 : 1000 : 0"
       inkscape:vp_z="1 : 0.5 : 1"
       inkscape:persp3d-origin="0.5 : 0.33333333 : 1"
       id="perspective3098" />
    <inkscape:perspective
       sodipodi:type="inkscape:persp3d"
       inkscape:vp_x="0 : 400.45404 : 1"
       inkscape:vp_y="0 : 1000 : 0"
       inkscape:vp_z="698.52008 : 400.45404 : 1"
       inkscape:persp3d-origin="349.26004 : 266.96936 : 1"
       id="perspective2978" />
    <inkscape:perspective
       sodipodi:type="inkscape:persp3d"
       inkscape:vp_x="0 : 0.5 : 1"
       inkscape:vp_y="0 : 1000 : 0"
       inkscape:vp_z="1 : 0.5 : 1"
       inkscape:persp3d-origin="0.5 : 0.33333333 : 1"
       id="perspective2852" />
    <inkscape:perspective
       sodipodi:type="inkscape:persp3d"
       inkscape:vp_x="0 : 0.5 : 1"
       inkscape:vp_y="0 : 1000 : 0"
       inkscape:vp_z="1 : 0.5 : 1"
       inkscape:persp3d-origin="0.5 : 0.33333333 : 1"
       id="perspective2838" />
    <inkscape:perspective
       id="perspective10-4"
       inkscape:persp3d-origin="372.04724 : 350.78739 : 1"
       inkscape:vp_z="744.09448 : 526.18109 : 1"
       inkscape:vp_y="0 : 1000 : 0"
       inkscape:vp_x="0 : 526.18109 : 1"
       sodipodi:type="inkscape:persp3d" />
  </defs>
  <sodipodi:namedview
     id="base"
     pagecolor="#ffffff"
     bordercolor="#666666"
     borderopacity="1.0"
     inkscape:pageopacity="0.0"
     inkscape:pageshadow="2"
     inkscape:zoom="0.35"
     inkscape:cx="-56.428571"
     inkscape:cy="520"
     inkscape:document-units="px"
     inkscape:current-layer="layer1-4"
     showgrid="false"
     inkscape:window-width="1366"
     inkscape:window-height="706"
     inkscape:window-x="-8"
     inkscape:window-y="-8"
     inkscape:window-maximized="1"
     inkscape:snap-page="false" />
  <metadata
     id="metadata7">
    <rdf:RDF>
      <cc:Work
         rdf:about="">
        <dc:format>image/svg+xml</dc:format>
        <dc:type
           rdf:resource="http://purl.org/dc/dcmitype/StillImage" />
        <dc:title></dc:title>
      </cc:Work>
    </rdf:RDF>
  </metadata>
  <g
     inkscape:label="Layer 1"
     inkscape:groupmode="layer"
     id="layer1"
     transform="translate(0,-308.27218)">
    <g
       id="layer1-4"
       inkscape:label="Layer 1"
       transform="translate(-77.683129,-38.392361)"
       inkscape:export-xdpi="1.6643358"
       inkscape:export-ydpi="1.6643358">
      <g
         id="g3062"
         transform="translate(4,6)">
        <g
           id="g2863"
           transform="matrix(1.4101389,0,0,1.4101389,-52.336194,113.75809)"
           inkscape:export-filename="C:\!Wrok\project chromeimo\text4222-6.png"
           inkscape:export-xdpi="90"
           inkscape:export-ydpi="90">
          <title
             id="title2865">Layer 1</title>
          <g
             transform="matrix(5.7244485,0,0,5.7244485,-582.68175,-2300.9683)"
             id="g2860"
             style="fill:#f5fa40">
            <path
               id="path2862"
               d="" />
          </g>
          <g
             transform="matrix(5.7244485,0,0,5.7244485,-582.68175,-2300.9683)"
             id="g2872"
             style="fill:#f5fa40">
            <path
               id="path2874"
               d="" />
          </g>
          <g
             transform="matrix(5.7244485,0,0,5.7244485,-582.68175,-2300.9683)"
             id="g2884"
             style="fill:#f5fa40">
            <path
               id="path2886"
               d="" />
          </g>
          <g
             transform="matrix(5.7244485,0,0,5.7244485,-582.68175,-2300.9683)"
             id="g2896"
             style="fill:#f5fa40">
            <path
               id="path2898"
               d="" />
          </g>
          <g
             transform="matrix(5.7244485,0,0,5.7244485,-582.68175,-2300.9683)"
             id="g2908"
             style="fill:#f5fa40">
            <path
               id="path2910"
               d="" />
          </g>
          <g
             transform="matrix(5.7244485,0,0,5.7244485,-582.68175,-2300.9683)"
             id="g2920"
             style="fill:#f5fa40">
            <path
               id="path2922"
               d="" />
          </g>
          <g
             transform="matrix(5.7244485,0,0,5.7244485,-582.68175,-2300.9683)"
             id="g2932"
             style="fill:#f5fa40">
            <path
               id="path2934"
               d="" />
          </g>
          <g
             transform="matrix(5.7244485,0,0,5.7244485,-582.68175,-2300.9683)"
             id="g2944"
             style="fill:#f5fa40">
            <path
               id="path2946"
               d="" />
          </g>
          <g
             transform="matrix(5.7244485,0,0,5.7244485,-582.68175,-2300.9683)"
             id="g2968"
             style="fill:#ff212c">
            <path
               id="path2970"
               d="" />
          </g>
          <g
             transform="matrix(5.7244485,0,0,5.7244485,-582.68175,-2300.9683)"
             id="g2980"
             style="fill:#ff212c">
            <path
               id="path2982"
               d="" />
          </g>
          <g
             transform="matrix(5.7244485,0,0,5.7244485,-582.68175,-2300.9683)"
             id="g2992"
             style="fill:#ff212c">
            <path
               id="path2994"
               d="" />
          </g>
          <g
             transform="matrix(5.7244485,0,0,5.7244485,-582.68175,-2300.9683)"
             id="g3004"
             style="fill:#ff212c">
            <path
               id="path3006"
               d="" />
          </g>
          <g
             transform="matrix(5.7244485,0,0,5.7244485,-582.68175,-2300.9683)"
             id="g3016"
             style="fill:#ff212c">
            <path
               id="path3018"
               d="" />
          </g>
          <g
             transform="matrix(5.7244485,0,0,5.7244485,-582.68175,-2300.9683)"
             id="g3028"
             style="fill:#ff212c">
            <path
               id="path3030"
               d="" />
          </g>
          <g
             transform="matrix(5.7244485,0,0,5.7244485,-582.68175,-2300.9683)"
             id="g3040"
             style="fill:#ff212c">
            <path
               id="path3042"
               d="" />
          </g>
          <g
             transform="matrix(5.7244485,0,0,5.7244485,-582.68175,-2300.9683)"
             id="g3052"
             style="fill:#ff212c">
            <path
               id="path3054"
               d="" />
          </g>
          <g
             transform="matrix(5.7244485,0,0,5.7244485,-582.68175,-2300.9683)"
             id="g3076"
             style="fill:#2da6ff">
            <path
               id="path3078"
               d="" />
          </g>
          <g
             transform="matrix(5.7244485,0,0,5.7244485,-582.68175,-2300.9683)"
             id="g3088"
             style="fill:#2da6ff">
            <path
               id="path3090"
               d="" />
          </g>
          <g
             transform="matrix(5.7244485,0,0,5.7244485,-582.68175,-2300.9683)"
             id="g3100"
             style="fill:#2da6ff">
            <path
               id="path3102"
               d="" />
          </g>
          <g
             transform="matrix(5.7244485,0,0,5.7244485,-582.68175,-2300.9683)"
             id="g3112"
             style="fill:#2da6ff">
            <path
               id="path3114"
               d="" />
          </g>
          <g
             transform="matrix(5.7244485,0,0,5.7244485,-582.68175,-2300.9683)"
             id="g3124"
             style="fill:#2da6ff">
            <path
               id="path3126"
               d="" />
          </g>
          <g
             transform="matrix(5.7244485,0,0,5.7244485,-582.68175,-2300.9683)"
             id="g3136"
             style="fill:#2da6ff">
            <path
               id="path3138"
               d="" />
          </g>
          <g
             transform="matrix(5.7244485,0,0,5.7244485,-582.68175,-2300.9683)"
             id="g3148"
             style="fill:#2da6ff">
            <path
               id="path3150"
               d="" />
          </g>
          <g
             transform="matrix(5.7244485,0,0,5.7244485,-582.68175,-2300.9683)"
             id="g3160"
             style="fill:#2da6ff">
            <path
               id="path3162"
               d="" />
          </g>
          <g
             transform="matrix(5.7244485,0,0,5.7244485,-582.68175,-2300.9683)"
             id="g3184"
             style="fill:#2da6ff">
            <path
               id="path3186"
               d="" />
          </g>
          <g
             transform="matrix(5.7244485,0,0,5.7244485,-582.68175,-2300.9683)"
             id="g3196"
             style="fill:#2da6ff">
            <path
               id="path3198"
               d="" />
          </g>
          <g
             transform="matrix(5.7244485,0,0,5.7244485,-582.68175,-2300.9683)"
             id="g3208"
             style="fill:#2da6ff">
            <path
               id="path3210"
               d="" />
          </g>
          <g
             transform="matrix(5.72445,0,0,5.72445,-582.682,-2300.97)"
             id="g3220"
             style="fill:#2da6ff">
            <path
               transform="translate(-4.8357201,-10.4934)"
               id="path3222"
               d="" />
          </g>
          <g
             id="svg_1">
            <g
               transform="matrix(5.7244485,0,0,5.7244485,-582.68175,-2300.9683)"
               id="svg_3"
               style="fill:#c00104">
              <path
                 d="m 193.36233,477.70206 0,4.55401 c 2.41102,2.14298 10.71402,2.00998 12.723,-0.268 l 0,-4.68802 -12.723,0.40201 z"
                 id="svg_4" />
            </g>
            <g
               transform="matrix(5.7244485,0,0,5.7244485,-582.68175,-2300.9683)"
               id="svg_5"
               style="fill:#ff212c">
              <path
                 d="m 193.36233,477.36807 c 0,-0.85 2.848,-1.54001 6.361,-1.54001 3.514,0 6.362,0.69001 6.362,1.54001 0,0.85099 -2.848,1.53998 -6.362,1.53998 -3.513,0 -6.361,-0.68899 -6.361,-1.53998 z"
                 id="svg_6" />
            </g>
            <g
               transform="matrix(5.7244485,0,0,5.7244485,-582.68175,-2300.9683)"
               id="svg_7"
               style="fill:#c00104">
              <path
                 d="m 177.76034,482.19006 0,4.55399 c 2.41102,2.143 10.71399,2.009 12.723,-0.26798 l 0,-4.68801 -12.723,0.402 z"
                 id="svg_8" />
            </g>
            <g
               transform="matrix(5.7244485,0,0,5.7244485,-582.68175,-2300.9683)"
               id="svg_9"
               style="fill:#ff212c">
              <path
                 d="m 177.76034,481.85605 c 0,-0.84998 2.848,-1.53998 6.362,-1.53998 3.513,0 6.361,0.69 6.361,1.53998 0,0.85101 -2.848,1.54001 -6.361,1.54001 -3.514,0 -6.362,-0.689 -6.362,-1.54001 z"
                 id="svg_10" />
            </g>
            <g
               transform="matrix(5.7244485,0,0,5.7244485,-582.68175,-2300.9683)"
               id="svg_11"
               style="fill:#c00104">
              <path
                 d="m 162.15836,486.67807 0,4.55399 c 2.41098,2.143 10.71398,2.009 12.72299,-0.26801 l 0,-4.68799 -12.72299,0.40201 z"
                 id="svg_12" />
            </g>
            <g
               transform="matrix(5.7244485,0,0,5.7244485,-582.68175,-2300.9683)"
               id="svg_13"
               style="fill:#ff212c">
              <path
                 d="m 162.15836,486.34406 c 0,-0.85099 2.84799,-1.54001 6.362,-1.54001 3.513,0 6.36099,0.68902 6.36099,1.54001 0,0.85101 -2.84799,1.54 -6.36099,1.54 -3.51401,0 -6.362,-0.68899 -6.362,-1.54 z"
                 id="svg_14" />
            </g>
            <g
               transform="matrix(5.72445,0,0,5.72445,-582.682,-2300.97)"
               id="svg_15"
               style="fill:#002ec4">
              <path
                 d="m 120.33098,469.34207 0,22.50098 25.18101,10.17901 0,-22.501 -25.18101,-10.17899 z"
                 id="svg_16"
                 style="fill:#0f284d;fill-opacity:1" />
            </g>
            <g
               transform="matrix(5.72445,0,0,5.72445,-582.682,-2300.97)"
               id="svg_17"
               style="fill:#2da6ff">
              <path
                 d="m 207.61732,482.36707 0,-20.92902 -62.414,18.21701 0,22.50101 62.414,-19.789 z"
                 id="svg_18"
                 style="fill:#225cb0;fill-opacity:1" />
            </g>
            <g
               transform="matrix(5.72445,0,0,5.72445,-582.682,-2300.97)"
               id="svg_19"
               style="fill:#2da6ff">
              <path
                 d="m 120.1563,469.60907 62.01202,-18.88602 25.315,10.715 -62.14601,18.48401 -25.18101,-10.31299 z"
                 id="svg_20"
                 style="fill:#1e519b;fill-opacity:1" />
            </g>
            <g
               transform="matrix(5.72445,0,0,5.72445,-582.682,-2300.97)"
               id="svg_21"
               style="fill:#002ec4">
              <path
                 d="m 140.69002,470.94806 0,4.55401 c 2.41098,2.14298 10.71399,2.00898 12.72298,-0.268 l 0,-4.68802 -12.72298,0.40201 z"
                 id="svg_22"
                 style="fill:#0f284d;fill-opacity:1" />
            </g>
            <g
               transform="matrix(5.72445,0,0,5.72445,-582.682,-2300.97)"
               id="svg_23"
               style="fill:#2da6ff">
              <path
                 d="m 140.51532,470.61408 c 0,-0.85001 2.84799,-1.54001 6.362,-1.54001 3.513,0 6.36099,0.69 6.36099,1.54001 0,0.85098 -2.84799,1.53997 -6.36099,1.53997 -3.51401,0 -6.362,-0.68899 -6.362,-1.53997 z"
                 id="svg_24"
                 style="fill:#225cb0;fill-opacity:1" />
            </g>
            <g
               transform="matrix(5.72445,0,0,5.72445,-582.682,-2300.97)"
               id="svg_25"
               style="fill:#002ec4">
              <path
                 d="m 156.561,466.32706 0,4.55401 c 2.41001,2.14398 10.713,2.00998 12.723,-0.26699 l 0,-4.68802 -12.723,0.401 z"
                 id="svg_26"
                 style="fill:#0f284d;fill-opacity:1" />
            </g>
            <g
               transform="matrix(5.72445,0,0,5.72445,-582.682,-2300.97)"
               id="svg_27"
               style="fill:#2da6ff">
              <path
                 d="m 156.38632,465.99307 c 0,-0.85 2.84799,-1.54001 6.36099,-1.54001 3.51401,0 6.362,0.69001 6.362,1.54001 0,0.85099 -2.84799,1.54099 -6.362,1.54099 -3.513,0 -6.36099,-0.69 -6.36099,-1.54099 z"
                 id="svg_28"
                 style="fill:#225cb0;fill-opacity:1" />
            </g>
            <g
               transform="matrix(5.72445,0,0,5.72445,-582.682,-2300.97)"
               id="svg_29"
               style="fill:#002ec4">
              <path
                 d="m 172.03,461.70605 0,4.555 c 2.41099,2.143 10.714,2.009 12.72301,-0.26798 l 0,-4.68802 -12.72301,0.40101 z"
                 id="svg_30"
                 style="fill:#0f284d;fill-opacity:1" />
            </g>
            <g
               transform="matrix(5.72445,0,0,5.72445,-582.682,-2300.97)"
               id="svg_31"
               style="fill:#2da6ff">
              <path
                 d="m 171.85532,461.37305 c 0,-0.85099 2.848,-1.53998 6.361,-1.53998 3.514,0 6.362,0.68899 6.362,1.53998 0,0.85 -2.848,1.54001 -6.362,1.54001 -3.513,0 -6.361,-0.69001 -6.361,-1.54001 z"
                 id="svg_32"
                 style="fill:#225cb0;fill-opacity:1" />
            </g>
            <g
               transform="matrix(5.72445,0,0,5.72445,-582.682,-2300.97)"
               id="svg_33"
               style="fill:#002ec4">
              <path
                 d="m 186.964,457.22006 0,4.55399 c 2.41001,2.143 10.713,2.009 12.723,-0.26798 l 0,-4.68802 -12.723,0.40201 z"
                 id="svg_34"
                 style="fill:#0f284d;fill-opacity:1" />
            </g>
            <g
               transform="matrix(5.72445,0,0,5.72445,-582.682,-2300.97)"
               id="svg_35"
               style="fill:#2da6ff">
              <path
                 d="m 186.78932,456.88605 c 0,-0.85099 2.84799,-1.53998 6.36099,-1.53998 3.51401,0 6.362,0.68899 6.362,1.53998 0,0.85101 -2.84799,1.54001 -6.362,1.54001 -3.513,0 -6.36099,-0.689 -6.36099,-1.54001 z"
                 id="svg_36"
                 style="fill:#225cb0;fill-opacity:1" />
            </g>
            <g
               transform="matrix(5.72445,0,0,5.72445,-582.682,-2300.97)"
               id="svg_37"
               style="fill:#002ec4">
              <path
                 d="m 174.575,451.79605 0,4.55402 c 2.41101,2.143 10.714,2.00998 12.724,-0.26801 l 0,-4.68799 -12.724,0.40198 z"
                 id="svg_38"
                 style="fill:#0f284d;fill-opacity:1" />
            </g>
            <g
               transform="matrix(5.72445,0,0,5.72445,-582.682,-2300.97)"
               id="svg_39"
               style="fill:#2da6ff">
              <path
                 d="m 174.40031,451.46207 c 0,-0.85001 2.849,-1.54001 6.362,-1.54001 3.51401,0 6.362,0.69 6.362,1.54001 0,0.85098 -2.84799,1.54001 -6.362,1.54001 -3.513,0 -6.362,-0.68903 -6.362,-1.54001 z"
                 id="svg_40"
                 style="fill:#225cb0;fill-opacity:1" />
            </g>
            <g
               transform="matrix(5.72445,0,0,5.72445,-582.682,-2300.97)"
               id="svg_41"
               style="fill:#002ec4">
              <path
                 d="m 158.974,456.28406 0,4.55401 c 2.41,2.14298 10.713,2.00898 12.72301,-0.268 l 0,-4.68802 -12.72301,0.40201 z"
                 id="svg_42"
                 style="fill:#0f284d;fill-opacity:1" />
            </g>
            <g
               transform="matrix(5.72445,0,0,5.72445,-582.682,-2300.97)"
               id="svg_43"
               style="fill:#2da6ff">
              <path
                 d="m 158.79932,455.95007 c 0,-0.85 2.848,-1.54001 6.361,-1.54001 3.514,0 6.362,0.69001 6.362,1.54001 0,0.85099 -2.848,1.53998 -6.362,1.53998 -3.513,0 -6.361,-0.68899 -6.361,-1.53998 z"
                 id="svg_44"
                 style="fill:#225cb0;fill-opacity:1" />
            </g>
            <g
               transform="matrix(5.72445,0,0,5.72445,-582.682,-2300.97)"
               id="svg_45"
               style="fill:#002ec4">
              <path
                 d="m 143.37199,460.77206 0,4.55399 c 2.41001,2.14301 10.71302,2.009 12.72301,-0.26797 l 0,-4.68802 -12.72301,0.402 z"
                 id="svg_46"
                 style="fill:#0f284d;fill-opacity:1" />
            </g>
            <g
               transform="matrix(5.72445,0,0,5.72445,-582.682,-2300.97)"
               id="svg_47"
               style="fill:#2da6ff">
              <path
                 d="m 143.19731,460.43805 c 0,-0.85098 2.84801,-1.53998 6.36101,-1.53998 3.51399,0 6.362,0.689 6.362,1.53998 0,0.85101 -2.84801,1.54001 -6.362,1.54001 -3.513,0 -6.36101,-0.689 -6.36101,-1.54001 z"
                 id="svg_48"
                 style="fill:#225cb0;fill-opacity:1" />
            </g>
            <g
               transform="matrix(5.72445,0,0,5.72445,-582.682,-2300.97)"
               id="svg_49"
               style="fill:#002ec4">
              <path
                 d="m 127.77002,465.25906 0,4.555 c 2.41099,2.143 10.713,2.009 12.72299,-0.26801 l 0,-4.68799 -12.72299,0.40101 z"
                 id="svg_50"
                 style="fill:#0f284d;fill-opacity:1" />
            </g>
            <g
               transform="matrix(5.72445,0,0,5.72445,-582.682,-2300.97)"
               id="svg_51"
               style="fill:#2da6ff">
              <path
                 d="m 127.59532,464.92606 c 0,-0.85099 2.84801,-1.54001 6.36101,-1.54001 3.51399,0 6.362,0.68902 6.362,1.54001 0,0.85 -2.84801,1.54001 -6.362,1.54001 -3.513,0 -6.36101,-0.69001 -6.36101,-1.54001 z"
                 id="svg_52"
                 style="fill:#225cb0;fill-opacity:1" />
            </g>
          </g>
        </g>
        <text
           xml:space="preserve"
           style="font-size:74.8805542px;font-style:normal;font-variant:normal;font-weight:normal;font-stretch:normal;fill:#ffffff;fill-opacity:1;stroke:none;font-family:Arial Rounded MT Bold;-inkscape-font-specification:'Arial Rounded MT Bold,'"
           x="333.20157"
           y="993.35974"
           id="text4222"
           transform="matrix(0.99971177,-0.32854508,-0.02400585,1.0081776,0,0)"
           inkscape:export-xdpi="90"
           inkscape:export-ydpi="90"><tspan
             sodipodi:role="line"
             id="tspan4224"
             x="333.20157"
             y="993.35974"
             style="font-size:149.7611084px;font-style:normal;font-variant:normal;font-weight:normal;font-stretch:normal;fill:#ffffff;font-family:Arial Rounded MT Bold;-inkscape-font-specification:'Arial Rounded MT Bold,'">imo.im</tspan></text>
        <text
           xml:space="preserve"
           style="font-size:35.61741257px;font-style:normal;font-variant:normal;font-weight:normal;font-stretch:normal;fill:#ffffff;fill-opacity:1;stroke:none;font-family:Arial Rounded MT Bold;-inkscape-font-specification:'Arial Rounded MT Bold,'"
           x="126.83874"
           y="787.55994"
           id="text4222-6"
           transform="matrix(0.99971178,0.3765568,-0.02400585,0.99124613,0,0)"
           inkscape:export-xdpi="90"
           inkscape:export-ydpi="90"><tspan
             sodipodi:role="line"
             id="tspan4224-1"
             x="126.83874"
             y="787.55994"
             style="font-size:71.23482513px;font-style:normal;font-variant:normal;font-weight:normal;font-stretch:normal;fill:#ffffff;font-family:Arial Rounded MT Bold;-inkscape-font-specification:'Arial Rounded MT Bold,'">LT</tspan></text>
      </g>
    </g>
  </g>
</svg>
